<svg width="30" height="30" fill="none" xmlns="http://www.w3.org/2000/svg"><g clip-path="url(#clip0_5127_37)" fill="#01A3A4"><path d="M13.06 22.734h3.017c.259 0 .469-.21.469-.468v-6.792h1.567c.24 0 .442-.181.466-.42l.265-2.565a.469.469 0 00-.467-.517h-1.831v-1.039c0-.214.068-.23.171-.23h1.622c.26 0 .469-.21.469-.47v-2.49a.469.469 0 00-.467-.468l-2.237-.01c-1.567 0-2.404.69-2.83 1.269-.594.808-.683 1.754-.683 2.246v1.192h-.966a.469.469 0 00-.469.469v2.564c0 .26.21.47.469.47h.966v6.79c0 .26.21.47.469.47zm-.966-8.197v-1.628h.966c.259 0 .469-.21.469-.468v-1.66c0-.304.048-1.077.5-1.692.433-.588 1.131-.886 2.073-.886l1.768.007v1.555h-1.153c-.552 0-1.109.361-1.109 1.168v1.508c0 .259.21.468.469.468h1.78l-.167 1.628h-1.613a.469.469 0 00-.469.468v6.792h-2.08v-6.792a.469.469 0 00-.468-.468h-.966z"/><path d="M25.607 4.394A14.902 14.902 0 0015 0C10.994 0 7.227 1.56 4.394 4.394A14.902 14.902 0 000 15c0 4.007 1.56 7.774 4.394 10.607A14.902 14.902 0 0015 30c4.007 0 7.774-1.56 10.607-4.393A14.902 14.902 0 0030 15a14.9 14.9 0 00-4.393-10.606zm-.663 20.55A13.97 13.97 0 0115 29.063a13.971 13.971 0 01-9.944-4.119A13.97 13.97 0 01.937 15a13.97 13.97 0 014.12-9.943A13.97 13.97 0 0115 .937a13.97 13.97 0 019.944 4.12A13.97 13.97 0 0129.063 15a13.97 13.97 0 01-4.12 9.944z"/></g><defs><clipPath id="clip0_5127_37"><path fill="#fff" d="M0 0h30v30H0z"/></clipPath></defs></svg>