<svg width="124" height="104" fill="none" xmlns="http://www.w3.org/2000/svg"><path d="M11.5 37C9 48 29.286 90.087 51 80.5c8-4 7-13.5 7-13.5-1-8-6.931-7.615-8.5-16.5s5.477-23.465-11.5-30C27.136 16.32 14.953 23.114 11.5 37z" fill="url(#paint0_linear_1_199)"/><path d="M111.54 58.983c2.5 11-17.786 53.087-39.5 43.5-8-4-7-13.5-7-13.5 1-8 6.931-7.615 8.5-16.5s-5.478-23.465 11.5-30c10.863-4.182 23.047 2.614 26.5 16.5z" fill="url(#paint1_linear_1_199)"/><ellipse cx="41.325" cy="8.716" rx="6.693" ry="8.272" transform="rotate(3.81 41.325 8.716)" fill="url(#paint2_linear_1_199)"/><ellipse cx="6.693" cy="8.272" rx="6.693" ry="8.272" transform="scale(-1 1) rotate(3.809 -374.712 -1309.803)" fill="url(#paint3_linear_1_199)"/><ellipse cx="26.548" cy="10.378" rx="4.911" ry="6.069" transform="rotate(-6.31 26.548 10.378)" fill="url(#paint4_linear_1_199)"/><ellipse cx="4.911" cy="6.069" rx="4.911" ry="6.069" transform="scale(-1 1) rotate(-6.31 192.68 938.975)" fill="url(#paint5_linear_1_199)"/><ellipse cx="16.153" cy="15.295" rx="3.664" ry="4.528" transform="rotate(-25.49 16.153 15.295)" fill="url(#paint6_linear_1_199)"/><ellipse cx="3.664" cy="4.528" rx="3.664" ry="4.528" transform="scale(-1 1) rotate(-25.49 20.783 265.282)" fill="url(#paint7_linear_1_199)"/><ellipse cx="8.464" cy="22.733" rx="3.164" ry="3.911" transform="rotate(-56.031 8.464 22.733)" fill="url(#paint8_linear_1_199)"/><ellipse cx="3.164" cy="3.911" rx="3.164" ry="3.911" transform="scale(-1 1) rotate(-56.031 -17.359 134.958)" fill="url(#paint9_linear_1_199)"/><ellipse cx="4.033" cy="32.523" rx="2.837" ry="3.506" transform="rotate(-77.61 4.033 32.523)" fill="url(#paint10_linear_1_199)"/><ellipse cx="2.837" cy="3.506" rx="2.837" ry="3.506" transform="scale(-1 1) rotate(-77.61 -26.375 104.765)" fill="url(#paint11_linear_1_199)"/><defs><linearGradient id="paint0_linear_1_199" x1="20.145" y1="25.446" x2="72.087" y2="73.999" gradientUnits="userSpaceOnUse"><stop stop-color="#74E6CF"/><stop offset="1" stop-color="#C0E594"/></linearGradient><linearGradient id="paint1_linear_1_199" x1="102.895" y1="47.428" x2="50.953" y2="95.982" gradientUnits="userSpaceOnUse"><stop stop-color="#74E6CF"/><stop offset="1" stop-color="#C0E594"/></linearGradient><linearGradient id="paint2_linear_1_199" x1="37.168" y1="2.073" x2="50.918" y2="16.006" gradientUnits="userSpaceOnUse"><stop stop-color="#74E6CF"/><stop offset="1" stop-color="#C0E594"/></linearGradient><linearGradient id="paint3_linear_1_199" x1="2.535" y1="1.629" x2="16.286" y2="15.563" gradientUnits="userSpaceOnUse"><stop stop-color="#74E6CF"/><stop offset="1" stop-color="#C0E594"/></linearGradient><linearGradient id="paint4_linear_1_199" x1="23.497" y1="5.504" x2="33.586" y2="15.727" gradientUnits="userSpaceOnUse"><stop stop-color="#74E6CF"/><stop offset="1" stop-color="#C0E594"/></linearGradient><linearGradient id="paint5_linear_1_199" x1="1.86" y1="1.195" x2="11.949" y2="11.418" gradientUnits="userSpaceOnUse"><stop stop-color="#74E6CF"/><stop offset="1" stop-color="#C0E594"/></linearGradient><linearGradient id="paint6_linear_1_199" x1="13.877" y1="11.659" x2="21.404" y2="19.285" gradientUnits="userSpaceOnUse"><stop stop-color="#74E6CF"/><stop offset="1" stop-color="#C0E594"/></linearGradient><linearGradient id="paint7_linear_1_199" x1="1.388" y1=".892" x2="8.914" y2="8.518" gradientUnits="userSpaceOnUse"><stop stop-color="#74E6CF"/><stop offset="1" stop-color="#C0E594"/></linearGradient><linearGradient id="paint8_linear_1_199" x1="6.499" y1="19.593" x2="12.999" y2="26.18" gradientUnits="userSpaceOnUse"><stop stop-color="#74E6CF"/><stop offset="1" stop-color="#C0E594"/></linearGradient><linearGradient id="paint9_linear_1_199" x1="1.199" y1=".77" x2="7.699" y2="7.357" gradientUnits="userSpaceOnUse"><stop stop-color="#74E6CF"/><stop offset="1" stop-color="#C0E594"/></linearGradient><linearGradient id="paint10_linear_1_199" x1="2.271" y1="29.708" x2="8.1" y2="35.614" gradientUnits="userSpaceOnUse"><stop stop-color="#74E6CF"/><stop offset="1" stop-color="#C0E594"/></linearGradient><linearGradient id="paint11_linear_1_199" x1="1.075" y1=".691" x2="6.903" y2="6.597" gradientUnits="userSpaceOnUse"><stop stop-color="#74E6CF"/><stop offset="1" stop-color="#C0E594"/></linearGradient></defs></svg>