<svg width="16" height="140" fill="none" xmlns="http://www.w3.org/2000/svg"><path fill="#fff" d="M7 90h2v50H7zm3.389-26.522c-.388 0-.684.137-.889.41-.21.274-.428.766-.656 1.477-.233.711-.46 1.274-.684 1.689-.61 1.13-1.433 1.695-2.468 1.695-.537 0-1.016-.15-1.435-.451-.424-.305-.754-.74-.991-1.306-.237-.57-.356-1.208-.356-1.914 0-.71.13-1.344.39-1.9.255-.556.617-.987 1.087-1.292a2.838 2.838 0 011.6-.465v2.05c-.456 0-.81.144-1.06.431-.255.287-.383.69-.383 1.21 0 .502.107.891.321 1.17.21.277.488.416.834.416.324 0 .595-.161.814-.485.218-.328.424-.809.615-1.442.35-1.167.786-2.017 1.306-2.55.52-.533 1.166-.8 1.941-.8.861 0 1.538.326 2.03.977.488.652.732 1.53.732 2.632 0 .766-.14 1.463-.417 2.092-.283.629-.668 1.11-1.155 1.442-.488.329-1.053.493-1.696.493v-2.058c1.098 0 1.648-.656 1.648-1.969 0-.487-.098-.868-.294-1.141-.2-.274-.479-.41-.834-.41zm-.704-14.765c1.07.077 1.914.474 2.529 1.19.615.71.923 1.65.923 2.816 0 1.276-.429 2.28-1.285 3.014-.862.73-2.042 1.094-3.541 1.094h-.609c-.957 0-1.8-.169-2.53-.506-.728-.337-1.287-.818-1.674-1.442-.392-.629-.588-1.358-.588-2.188 0-1.148.308-2.073.923-2.775s1.479-1.107 2.59-1.217v2.051c-.642.05-1.107.23-1.394.54-.291.305-.437.773-.437 1.401 0 .684.246 1.197.738 1.538.488.338 1.247.51 2.276.52h.752c1.076 0 1.862-.162 2.359-.485.496-.329.745-.843.745-1.545 0-.634-.144-1.105-.43-1.415-.292-.315-.741-.495-1.347-.54v-2.051zm-.329-8.531v1.633H13v2.051H3.047v-3.698c0-1.176.262-2.083.786-2.72.524-.639 1.265-.958 2.222-.958.679 0 1.246.148 1.702.445.451.291.811.736 1.08 1.333l4.067-2.154H13v2.201l-3.644 1.867zm-1.66 1.633v-1.654c0-.515-.13-.914-.39-1.196-.265-.283-.627-.424-1.087-.424-.47 0-.839.135-1.108.403-.269.265-.403.672-.403 1.224v1.647h2.987zm.553-18.566c.98 0 1.839.173 2.577.52.739.346 1.308.843 1.71 1.49.4.642.6 1.38.6 2.215 0 .825-.197 1.56-.594 2.208-.396.647-.962 1.148-1.695 1.504-.739.355-1.586.535-2.543.54h-.492c-.98 0-1.842-.176-2.584-.527-.748-.355-1.32-.854-1.716-1.497-.401-.647-.602-1.385-.602-2.215 0-.83.2-1.565.602-2.208.396-.647.968-1.146 1.716-1.497.742-.355 1.601-.533 2.577-.533h.444zm-.451 2.078c-1.044 0-1.837.187-2.38.56-.541.374-.813.908-.813 1.6 0 .689.27 1.22.807 1.593.533.374 1.317.563 2.352.568h.485c1.016 0 1.805-.187 2.365-.561.56-.374.841-.912.841-1.613 0-.689-.269-1.217-.807-1.586-.542-.37-1.33-.556-2.365-.56h-.485zm3.554-9.119v-4.354H13v6.405H3.047v-2.051h8.305zm0-11.088V.766H13V7.17H3.047V5.12h8.305z"/></svg>