<svg width="30" height="30" fill="none" xmlns="http://www.w3.org/2000/svg"><g clip-path="url(#clip0_5127_49)" fill="#01A3A4"><path d="M25.607 4.394A14.902 14.902 0 0015 0C10.994 0 7.227 1.56 4.394 4.394A14.902 14.902 0 000 15c0 4.007 1.56 7.774 4.394 10.607A14.902 14.902 0 0015 30c4.007 0 7.774-1.56 10.607-4.393A14.902 14.902 0 0030 15a14.9 14.9 0 00-4.393-10.606zm-.663 20.55A13.97 13.97 0 0115 29.063a13.971 13.971 0 01-9.944-4.119A13.97 13.97 0 01.937 15a13.97 13.97 0 014.12-9.944A13.97 13.97 0 0115 .937a13.97 13.97 0 019.944 4.12A13.97 13.97 0 0129.063 15a13.97 13.97 0 01-4.12 9.944z"/><path d="M23.359 11.412a.469.469 0 00-.58-.689l-.036.016c.11-.198.202-.407.272-.626a.469.469 0 00-.686-.546 5.47 5.47 0 01-1.507.615 3.453 3.453 0 00-5.77 2.714 8.021 8.021 0 01-5.24-2.893.468.468 0 00-.768.06 3.454 3.454 0 00-.054 3.376.466.466 0 00-.437.467v.038c0 1.032.463 1.98 1.208 2.62a.469.469 0 00-.14.498c.32 1 1.069 1.777 2.007 2.151a5.492 5.492 0 01-2.48.582c-.22 0-.441-.013-.656-.038a.469.469 0 00-.308.86 8.917 8.917 0 004.824 1.414c3.366 0 5.474-1.59 6.649-2.922 1.463-1.66 2.302-3.857 2.302-6.03l-.001-.156a6.472 6.472 0 001.4-1.511zm-2.152.903a.469.469 0 00-.194.403c.006.115.008.234.008.362 0 1.947-.753 3.918-2.067 5.409-1.048 1.188-2.93 2.605-5.946 2.605a7.987 7.987 0 01-2.69-.465 6.39 6.39 0 002.822-1.271.469.469 0 00-.28-.838 2.513 2.513 0 01-2.024-1.086c.236-.014.47-.053.698-.114a.469.469 0 00-.03-.912 2.522 2.522 0 01-1.916-1.773c.25.066.509.104.769.113a.468.468 0 00.275-.858 2.51 2.51 0 01-1.037-2.722 8.953 8.953 0 005.976 2.713.468.468 0 00.48-.574 2.515 2.515 0 014.283-2.291c.11.117.273.169.43.138a6.35 6.35 0 00.527-.126 2.397 2.397 0 01-.275.19.469.469 0 00.296.868c.076-.009.152-.02.228-.031a5.7 5.7 0 01-.333.26z"/></g><defs><clipPath id="clip0_5127_49"><path fill="#fff" d="M0 0h30v30H0z"/></clipPath></defs></svg>