<svg width="16" height="140" viewBox="0 0 16 140" fill="none" xmlns="http://www.w3.org/2000/svg">
<rect x="7" y="90" width="2" height="50" fill="white"/>
<path d="M10.3887 63.4785C10.0013 63.4785 9.70508 63.6152 9.5 63.8887C9.29036 64.1621 9.07161 64.6543 8.84375 65.3652C8.61133 66.0762 8.38346 66.639 8.16016 67.0537C7.54948 68.1839 6.72689 68.749 5.69238 68.749C5.15462 68.749 4.67611 68.5986 4.25684 68.2979C3.83301 67.9925 3.5026 67.5573 3.26562 66.9922C3.02865 66.4225 2.91016 65.7845 2.91016 65.0781C2.91016 64.3672 3.04004 63.7337 3.2998 63.1777C3.55501 62.6217 3.91732 62.1911 4.38672 61.8857C4.85612 61.5758 5.38932 61.4209 5.98633 61.4209L5.98633 63.4717C5.5306 63.4717 5.17741 63.6152 4.92676 63.9023C4.67155 64.1895 4.54395 64.5928 4.54395 65.1123C4.54395 65.6136 4.65104 66.0033 4.86523 66.2812C5.07487 66.5592 5.35286 66.6982 5.69922 66.6982C6.02279 66.6982 6.29395 66.5365 6.5127 66.2129C6.73145 65.8848 6.93652 65.404 7.12793 64.7705C7.47884 63.6038 7.91406 62.7539 8.43359 62.2207C8.95312 61.6875 9.60026 61.4209 10.375 61.4209C11.2363 61.4209 11.9131 61.7467 12.4053 62.3984C12.8929 63.0501 13.1367 63.9274 13.1367 65.0303C13.1367 65.7959 12.9977 66.4932 12.7197 67.1221C12.4372 67.751 12.0521 68.2318 11.5645 68.5645C11.0768 68.8926 10.5117 69.0566 9.86914 69.0566L9.86914 66.999C10.9674 66.999 11.5166 66.3428 11.5166 65.0303C11.5166 64.5426 11.4186 64.1621 11.2227 63.8887C11.0221 63.6152 10.7441 63.4785 10.3887 63.4785ZM9.68457 48.7129C10.7555 48.7904 11.5986 49.1868 12.2139 49.9023C12.8291 50.6133 13.1367 51.5521 13.1367 52.7187C13.1367 53.9948 12.7083 54.9997 11.8516 55.7334C10.9902 56.4626 9.8099 56.8271 8.31055 56.8271L7.70215 56.8271C6.74512 56.8271 5.90202 56.6585 5.17285 56.3213C4.44368 55.984 3.88542 55.5033 3.49805 54.8789C3.10612 54.25 2.91016 53.5208 2.91016 52.6914C2.91016 51.543 3.21777 50.6178 3.83301 49.916C4.44824 49.2142 5.31185 48.8086 6.42383 48.6992L6.42383 50.75C5.78125 50.8001 5.31641 50.9801 5.0293 51.29C4.73763 51.5954 4.5918 52.0625 4.5918 52.6914C4.5918 53.375 4.83789 53.8877 5.33008 54.2295C5.81771 54.5667 6.5765 54.7399 7.60644 54.749L8.3584 54.749C9.43392 54.749 10.2201 54.5872 10.7168 54.2637C11.2135 53.9355 11.4619 53.4206 11.4619 52.7187C11.4619 52.0853 11.3184 51.6136 11.0312 51.3037C10.7396 50.9893 10.2907 50.8092 9.68457 50.7637L9.68457 48.7129ZM9.35644 40.1816L9.35644 41.8154L13 41.8154L13 43.8662L3.04687 43.8662L3.04687 40.168C3.04687 38.9922 3.30892 38.0853 3.83301 37.4473C4.35709 36.8092 5.09765 36.4902 6.05469 36.4902C6.73372 36.4902 7.30111 36.6383 7.75683 36.9346C8.20801 37.2262 8.56803 37.6706 8.83691 38.2676L12.9043 36.1143L13 36.1143L13 38.3154L9.35644 40.1816ZM7.69531 41.8154L7.69531 40.1611C7.69531 39.6462 7.56543 39.2474 7.30566 38.9648C7.04134 38.6823 6.67904 38.541 6.21875 38.541C5.74935 38.541 5.38021 38.6755 5.11133 38.9443C4.84245 39.2087 4.70801 39.6165 4.70801 40.168L4.70801 41.8154L7.69531 41.8154ZM8.24902 23.249C9.22884 23.249 10.0879 23.4222 10.8262 23.7686C11.5645 24.1149 12.1341 24.6117 12.5352 25.2588C12.9362 25.9014 13.1367 26.6396 13.1367 27.4736C13.1367 28.2985 12.9385 29.0345 12.542 29.6816C12.1455 30.3288 11.5804 30.8301 10.8467 31.1855C10.1084 31.541 9.26074 31.721 8.30371 31.7256L7.81152 31.7256C6.8317 31.7256 5.97038 31.5501 5.22754 31.1992C4.48014 30.8437 3.9082 30.3447 3.51172 29.7021C3.11068 29.055 2.91015 28.3167 2.91015 27.4873C2.91015 26.6579 3.11068 25.9219 3.51172 25.2793C3.9082 24.6322 4.48014 24.1331 5.22754 23.7822C5.97038 23.4268 6.82943 23.249 7.80469 23.249L8.24902 23.249ZM7.79785 25.3271C6.75423 25.3271 5.96126 25.514 5.41894 25.8877C4.87663 26.2614 4.60547 26.7946 4.60547 27.4873C4.60547 28.1755 4.87435 28.7064 5.41211 29.0801C5.94531 29.4538 6.72916 29.6429 7.76367 29.6475L8.24902 29.6475C9.2653 29.6475 10.0537 29.4606 10.6143 29.0869C11.1748 28.7132 11.4551 28.1755 11.4551 27.4736C11.4551 26.7855 11.1862 26.2568 10.6484 25.8877C10.1061 25.5186 9.31771 25.3317 8.2832 25.3271L7.79785 25.3271ZM11.3525 16.208L11.3525 11.8535L13 11.8535L13 18.2588L3.04687 18.2588L3.04687 16.208L11.3525 16.208ZM11.3525 5.12012L11.3525 0.765625L13 0.765624L13 7.1709L3.04687 7.1709L3.04687 5.12012L11.3525 5.12012Z" fill="white"/>
</svg>
